<?xml version="1.0" standalone="no"?>
<!DOCTYPE svg PUBLIC "-//W3C//DTD SVG 20010904//EN"
 "http://www.w3.org/TR/2001/REC-SVG-20010904/DTD/svg10.dtd">
<svg version="1.0" xmlns="http://www.w3.org/2000/svg"
 width="270.000000pt" height="110.000000pt" viewBox="0 0 270.000000 110.000000"
 preserveAspectRatio="xMidYMid meet">

<g transform="translate(0.000000,110.000000) scale(0.100000,-0.100000)"
fill="#000000" stroke="none">
<path d="M462 960 c-127 -19 -245 -111 -305 -238 -30 -62 -32 -75 -32 -172 0
-97 2 -110 32 -172 127 -268 475 -331 679 -123 240 246 99 655 -244 705 -37 5
-69 9 -72 9 -3 -1 -29 -5 -58 -9z m303 -200 l0 -65 -157 -3 -157 -3 -3 -122
-3 -122 -65 0 -65 0 -3 193 -2 192 227 -2 228 -3 0 -65z m0 -300 l0 -185 -143
-3 -143 -3 3 68 3 68 68 3 67 3 0 49 0 50 -70 0 -70 0 0 63 c0 35 3 67 7 71 4
3 68 5 142 4 l136 -3 0 -185z"/>
<path d="M340 635 l0 -155 35 0 35 0 0 113 c0 75 4 117 12 125 8 8 58 12 160
12 l148 0 0 30 0 30 -195 0 -195 0 0 -155z"/>
<path d="M520 575 l0 -35 70 0 71 0 -3 -82 -3 -83 -67 -3 c-68 -3 -68 -3 -68
-32 l0 -30 105 0 105 0 0 150 0 150 -105 0 -105 0 0 -35z"/>
<path d="M2500 890 c-17 -17 -20 -33 -20 -125 l0 -105 -25 0 c-20 0 -25 -5
-25 -25 0 -20 5 -25 25 -25 l25 0 0 -135 0 -135 25 0 25 0 0 135 0 135 25 0
c20 0 25 5 25 25 0 20 -5 25 -25 25 l-26 0 3 98 c3 90 5 98 26 107 12 5 22 18
22 27 0 25 -54 24 -80 -2z"/>
<path d="M1246 659 c-58 -16 -105 -89 -106 -164 0 -57 37 -126 80 -148 45 -23
113 -18 144 12 33 31 39 26 33 -26 -9 -85 -88 -124 -169 -84 -31 15 -45 18
-55 9 -22 -18 -15 -28 34 -50 54 -24 134 -21 178 8 50 32 55 57 55 259 0 178
-1 185 -20 185 -13 0 -20 -7 -20 -20 0 -25 -4 -25 -38 -1 -32 23 -76 31 -116
20z m102 -55 c54 -37 67 -119 29 -175 -32 -48 -68 -63 -113 -49 -42 14 -64 45
-71 99 -14 101 81 177 155 125z"/>
<path d="M1610 663 c-61 -17 -87 -60 -68 -114 9 -25 24 -37 73 -60 71 -32 89
-50 80 -79 -11 -34 -52 -44 -103 -24 -37 14 -46 14 -53 3 -14 -23 -11 -27 36
-44 61 -24 112 -15 148 25 50 56 25 113 -67 154 -65 29 -81 47 -66 75 12 24
67 29 102 10 18 -9 24 -8 35 7 12 16 10 20 -10 31 -27 14 -84 22 -107 16z"/>
<path d="M2305 663 c-11 -3 -30 -14 -41 -25 -21 -19 -21 -19 -27 2 -4 14 -12
21 -24 18 -16 -3 -18 -18 -21 -161 l-3 -157 25 0 c24 0 24 1 28 114 3 106 5
116 28 141 21 22 31 26 63 22 29 -4 39 -1 47 13 8 15 4 20 -22 29 -17 6 -31
10 -32 10 -1 -1 -10 -3 -21 -6z"/>
<path d="M1823 645 c-10 -27 3 -239 15 -262 16 -29 62 -53 102 -53 35 0 90 25
90 41 0 6 4 8 10 4 5 -3 7 -12 3 -20 -4 -11 2 -15 21 -15 l26 0 0 161 0 160
-22 -3 c-22 -3 -23 -7 -26 -114 -2 -102 -5 -114 -26 -137 -33 -35 -70 -43
-102 -23 -36 24 -44 55 -44 172 0 98 -1 104 -20 104 -11 0 -23 -7 -27 -15z"/>
</g>
</svg>
