<?xml version="1.0" standalone="no"?>
<!DOCTYPE svg PUBLIC "-//W3C//DTD SVG 20010904//EN"
 "http://www.w3.org/TR/2001/REC-SVG-20010904/DTD/svg10.dtd">
<svg version="1.0" xmlns="http://www.w3.org/2000/svg"
 width="270.000000pt" height="110.000000pt" viewBox="0 0 270.000000 110.000000"
 preserveAspectRatio="xMidYMid meet">

<g transform="translate(0.000000,110.000000) scale(0.100000,-0.100000)"
fill="#000000" stroke="none">
<path d="M228 723 c-55 -54 -104 -106 -109 -116 -14 -24 62 -107 83 -90 10 9
19 7 38 -7 29 -23 93 -26 109 -6 9 11 6 18 -15 35 -15 12 -33 21 -41 21 -27 0
-73 56 -73 90 0 65 55 110 136 110 l47 0 -19 21 c-44 49 -48 47 -156 -58z"/>
<path d="M704 716 c-39 -17 -62 -66 -46 -101 7 -14 32 -35 57 -47 34 -17 45
-27 43 -42 -5 -30 -41 -37 -82 -16 -35 17 -37 17 -58 0 l-22 -17 28 -18 c15
-10 52 -21 81 -23 50 -4 57 -2 85 26 50 50 37 99 -35 133 -30 14 -45 28 -45
40 0 27 47 36 81 16 26 -14 29 -14 46 5 17 19 17 20 -2 31 -48 28 -86 32 -131
13z"/>
<path d="M1810 718 c0 -7 -5 -30 -11 -51 -10 -36 -11 -37 -32 -22 -91 64 -206
-80 -136 -170 22 -28 54 -31 103 -10 14 6 17 5 12 -4 -6 -9 0 -12 20 -9 28 3
30 6 65 141 l35 137 -28 0 c-16 0 -28 -5 -28 -12z m-44 -123 c22 -33 4 -78
-37 -95 -25 -11 -32 -10 -49 5 -27 24 -25 57 5 89 30 33 60 33 81 1z"/>
<path d="M312 678 c-20 -20 -14 -27 43 -54 64 -31 85 -55 85 -100 0 -73 -90
-127 -174 -105 -22 5 -42 8 -44 6 -2 -2 14 -9 37 -15 23 -6 41 -15 41 -19 0
-5 10 -11 22 -14 18 -5 41 13 125 95 57 56 103 110 103 120 0 10 -18 38 -39
61 -39 42 -39 42 -61 22 -20 -18 -22 -18 -49 -2 -34 20 -72 22 -89 5z"/>
<path d="M905 648 c-6 -19 -65 -248 -65 -253 0 -3 11 -5 24 -5 19 0 26 8 36
45 14 50 15 51 36 30 33 -32 112 -7 139 45 22 42 19 106 -5 130 -22 22 -60 26
-91 10 -13 -7 -19 -7 -19 0 0 14 -50 12 -55 -2z m119 -44 c23 -23 19 -61 -9
-89 -27 -28 -37 -30 -66 -15 -26 15 -25 67 3 97 25 27 50 29 72 7z"/>
<path d="M1181 635 c-59 -51 -63 -147 -5 -174 51 -23 129 -7 118 24 -5 11 -16
13 -43 9 -28 -4 -42 -2 -54 11 -27 26 -11 35 63 35 64 0 68 1 74 25 7 29 -15
79 -39 89 -36 14 -84 6 -114 -19z m97 -27 c26 -26 13 -38 -38 -38 -54 0 -59 4
-33 32 18 21 53 24 71 6z"/>
<path d="M1415 627 c-54 -54 -58 -114 -13 -157 24 -22 86 -27 119 -9 32 17 6
39 -37 32 -36 -6 -64 9 -64 33 0 11 18 14 75 14 l75 0 0 40 c0 83 -91 111
-155 47z m104 -26 c14 -25 5 -31 -46 -31 -47 0 -51 4 -26 32 21 23 60 23 72
-1z"/>
<path d="M1906 643 c-3 -10 -17 -63 -31 -118 -14 -55 -28 -108 -31 -117 -4
-14 1 -18 20 -18 22 0 27 6 37 45 12 48 19 54 39 30 23 -28 78 -19 116 19 30
30 34 40 34 85 0 38 -5 56 -20 71 -22 22 -69 26 -89 8 -11 -10 -14 -10 -18 0
-7 19 -51 15 -57 -5z m118 -36 c27 -20 18 -75 -16 -100 -23 -17 -31 -19 -53
-9 -36 17 -35 72 1 101 31 24 44 26 68 8z"/>
<path d="M2187 653 c-11 -3 -16 -10 -13 -20 3 -8 6 -17 6 -19 0 -3 15 -2 33 1
25 5 39 2 51 -10 25 -25 11 -35 -49 -35 -46 0 -56 -4 -74 -26 -26 -33 -27 -56
-3 -77 21 -19 54 -22 83 -7 13 7 19 7 19 0 0 -5 11 -10 25 -10 19 0 26 7 35
38 36 125 21 173 -54 171 -23 -1 -49 -3 -59 -6z m72 -119 c9 -8 -11 -35 -34
-46 -21 -10 -29 -9 -43 6 -16 16 -16 18 7 37 21 17 53 18 70 3z"/>
<path d="M2396 588 c4 -40 8 -91 8 -113 1 -35 -2 -40 -22 -40 -23 -1 -45 -22
-36 -37 9 -14 61 -8 82 10 11 9 51 67 87 127 37 61 69 113 72 118 2 4 -9 7
-25 7 -26 0 -34 -8 -68 -72 -35 -67 -39 -71 -45 -48 -4 14 -7 46 -8 73 -1 44
-3 47 -27 47 l-27 0 9 -72z"/>
</g>
</svg>
